DB_HET_GROUP=1 Slurm raw vars: SLURM_GPUS_PER_NODE_HET_GROUP_1='', SLURM_GPUS_PER_TASK_HET_GROUP_1='', SLURM_TRES_PER_TASK_HET_GROUP_1='cpu=24', SLURM_NTASKS_PER_NODE_HET_GROUP_1='1', SLURM_GPUS_ON_NODE_HET_GROUP_1='' -> parsed: gpus_per_task=, gpus_per_node=2, gpus_on_node=8; computed GPUS_PER_NODE=2, DB_NODES=4, ML_INFERENCE_CPU_CORES=24; TOTAL_GPU_COUNT=8
Configuring for GPU-based ML inference with 2 GPUs per node.
Calculated MPI_RANKS=96 from _nodes=1, _ntasks_per_node=96, SLURM_NTASKS=96, and _solver_ntasks_var=
Using preliminary job name: circle_r500_d100_s10_periodic_8640x4320_c23mm_1n_96t_c-4n___rank0_gather_none
Calculated REDUCED_HEIGHT=540 to achieve 16:9 aspect ratio in final video with TARGET_WIDTH=8640 and TARGET_HEIGHT=4320
Using CUSTOM_JOB_NAME_SUFFIX from environment variable: _2gpu_perfect_model_revamped_prepare
Warning: OVERWRITE_JOB_NAME_ENV is set to 1 but neither JOB_NAME_ENV nor JOB_NAME_TEMPLATE_ENV is set. Using default naming scheme with template: circle_r${RADIUS}_d${INIT_DEPTH}_s${TOTAL_STEPS}_${SAVE_MODE}_${TARGET_WIDTH}x${TARGET_HEIGHT}_${_partition}_${_nodes}n_${_ntasks_per_node}t_${_cpus_per_task}c-${DB_NODES}n_${DB}__${IO_MODE}_${MPI_SYNC_MODE}${CUSTOM_JOB_NAME_SUFFIX}
Module OpenSSL/1.1 is not loaded. Purging and loading required modules.
Purging and loading required modules for SmartSim...
Loading required modules...
[INFO] Module OpenSSL/1.1 loaded.
[WARN] This node does not have a GPU installed. CUDA will not work.
[WARN] Please refer to https://help.itc.rwth-aachen.de for information on which
nodes feature GPUs. 
[INFO] Module CUDA/12.4.0 loaded.
[INFO] Module GCCcore/11.3.0 loaded.
[INFO] Module Clang/15.0.5 loaded.
[INFO] Module GCC/11.3.0 loaded.
[INFO] Module OpenMPI/4.1.4 loaded.
[INFO] Module FFTW.MPI/3.3.10 loaded.
[INFO] Module HDF5/1.12.2 loaded.
[INFO] Module PnetCDF/1.12.3 loaded.
[INFO] Module cuDNN/8.9.7.29-CUDA-12.4.0 loaded.
[INFO] Module imkl/2024.2.0 loaded.
Overriding devices via argument: cuda-12

=== Installing SmartSim for device: cuda-12 ===
Including backend: torch
Excluding torch backend for device cuda-12 to avoid CUDA 12.4 compatibility issues with PyTorch. We will install it separately using pip after the smartsim build.
Including backend: onnxruntime
Including backend: tensorflow
SmartSim build command: smart build --device cuda-12 --skip-torch
Install location: ./python/smartsim_cuda-12/
Base directory for SmartSim installation: /hpcwork/ro092286/smartsim/
Python virtual environment already exists at ./python/smartsim_cuda-12/
Activating Python virtual environment for device: cuda-12
smartsim is already installed in the virtual environment.
Checking SmartSim build status...
command succeeded
SmartSim' redis is already built and available.
SmartSim' has TensorFlow support.
SmartSim is already fully built with all backends.
Installation of the smartsim 'backend' complete. This includes the SmartRedis Python client. The Fortran/C/C++ clients can be built from source as needed.

--- Installing SmartRedis C/C++ client ---
SmartRedis directory already exists. Skipping clone.
Already on the correct branch: develop
Already at the correct commit: a5e235564f5d3912eec9541ea3ebce9dd42eccf7
Current directory: /hpcwork/ro092286/smartsim
OpenSSL/1.1
CUDA/12.4.0
GCCcore/11.3.0
zlib/1.2.12
binutils/2.38
numactl/2.0.14
XZ/5.2.5
libxml2/2.9.13
libpciaccess/0.16
hwloc/2.7.1
ncurses/6.3
GMP/6.2.1
Z3/4.10.2
Clang/15.0.5
GCC/11.3.0
libevent/2.1.12
UCX/1.12.1
PMIx/4.1.2
UCC/1.0.0
OpenMPI/4.1.4
FFTW/3.3.10
FFTW.MPI/3.3.10
Szip/2.1.1
HDF5/1.12.2
PnetCDF/1.12.3
cuDNN/8.9.7.29-CUDA-12.4.0
imkl/2024.2.0
Warning: /hpcwork/thes2181/mini_app is not empty.
Warning: /hpcwork/thes2181/mini_app/circle_r500_d100_s10_periodic_8640x4320_c23mm_1n_96t_c-4n___rank0_gather_none_2gpu_perfect_model_revamped_prepare is not empty.
Resolving model artifact from manifest train_models/model_a/artifact_manifest_perfect_model.json for model=perfect_model backend=TORCH
Resolved MODEL_PATH=/rwthfs/rz/cluster/hpcwork/ro092286/smartsim/mini_app/train_models/model_a/real_function_jit.pt
Resolved MODEL_INPUTS=x_water,x_terrain
Resolved MODEL_OUTPUTS=y
Staging model file to fast volatile storage. Source: /rwthfs/rz/cluster/hpcwork/ro092286/smartsim/mini_app/train_models/model_a/real_function_jit.pt
Model cache root (fixed local path): /tmp/ro092286/model (fs_type=xfs)
Warning: Could not resolve explicit node list for het-group 1; falling back to single srun staging.
MODEL_STAGE_PER_NODE label=db het_group=1 host=n23g0010.hpc.itc.rwth-aachen.de duration_s=0 path=/tmp/ro092286/model/real_function_jit.pt
MODEL_STAGE_PER_NODE label=db het_group=1 host=n23g0020.hpc.itc.rwth-aachen.de duration_s=0 path=/tmp/ro092286/model/real_function_jit.pt
MODEL_STAGE_PER_NODE label=db het_group=1 host=n23g0019.hpc.itc.rwth-aachen.de duration_s=0 path=/tmp/ro092286/model/real_function_jit.pt
MODEL_STAGE_PER_NODE label=db het_group=1 host=n23g0012.hpc.itc.rwth-aachen.de duration_s=0 path=/tmp/ro092286/model/real_function_jit.pt
Model staged on het-groups 0 and 1; total staging time: 1s
Trajectory file exists. Last saved step: 10 (target: 10)
Skipping solver: trajectory already complete at step 10.
Skipping preparation since trajectory file already exists.
Skipping solver execution since trajectory is already complete.
Creating 'close_driver_66499735.txt' file to signal SmartSim controller to shut down...
Waiting 10s before killing driver to allow for graceful shutdown...
SmartSim controller PID is not set (controller may not have started in this run). Skipping controller termination.
Post-processing on batch host n23m0218.hpc.itc.rwth-aachen.de with RENDER_CPUS=96, FFMPEG_THREADS=16
/rwthfs/rz/cluster/hpcwork/ro092286/smartsim/mini_app/render.py:334: DeprecationWarning: 'mode' parameter is deprecated and will be removed in Pillow 13 (2026-10-15)
  img = Image.fromarray(rgb, mode="RGB")
Rendered full-size step 10 -> /hpcwork/thes2181/mini_app/circle_r500_d100_s10_periodic_8640x4320_c23mm_1n_96t_c-4n___rank0_gather_none_2gpu_perfect_model_revamped_prepare/world_last_step.png
/rwthfs/rz/cluster/hpcwork/ro092286/smartsim/mini_app/render.py:334: DeprecationWarning: 'mode' parameter is deprecated and will be removed in Pillow 13 (2026-10-15)
  img = Image.fromarray(rgb, mode="RGB")
Rendering all 11 saved steps.
[render] rendering 11 frames with 96 threads...
[render] progress: 1/11 (9.1%)
[render] progress: 2/11 (18.2%)
[render] progress: 3/11 (27.3%)
[render] progress: 4/11 (36.4%)
[render] progress: 5/11 (45.5%)
[render] progress: 6/11 (54.5%)
[render] progress: 7/11 (63.6%)
[render] progress: 8/11 (72.7%)
[render] progress: 9/11 (81.8%)
[render] progress: 10/11 (90.9%)
[render] progress: 11/11 (100.0%)
Rendered 11 full-size frames (threads=96) into /hpcwork/thes2181/mini_app/circle_r500_d100_s10_periodic_8640x4320_c23mm_1n_96t_c-4n___rank0_gather_none_2gpu_perfect_model_revamped_prepare/rendered_frames
Top view rendering time: 10 seconds
/rwthfs/rz/cluster/hpcwork/ro092286/smartsim/mini_app/render_slice.py:190: DeprecationWarning: 'mode' parameter is deprecated and will be removed in Pillow 13 (2026-10-15)
  img = Image.fromarray(canvas, mode="RGB")
[render_slice] rendering 11 frames with 96 threads...
[render_slice] progress: 1/11 (9.1%)
[render_slice] progress: 2/11 (18.2%)
[render_slice] progress: 3/11 (27.3%)
[render_slice] progress: 4/11 (36.4%)
[render_slice] progress: 5/11 (45.5%)
[render_slice] progress: 6/11 (54.5%)
[render_slice] progress: 7/11 (63.6%)
[render_slice] progress: 8/11 (72.7%)
[render_slice] progress: 9/11 (81.8%)
[render_slice] progress: 10/11 (90.9%)
[render_slice] progress: 11/11 (100.0%)
Rendered 11 side-view full-size frames (width=8640, height=1080, height_min=0.0, slice_z=2160, threads=96) into /hpcwork/thes2181/mini_app/circle_r500_d100_s10_periodic_8640x4320_c23mm_1n_96t_c-4n___rank0_gather_none_2gpu_perfect_model_revamped_prepare/rendered_slices
Slice (full height) rendering time: 0 seconds
/rwthfs/rz/cluster/hpcwork/ro092286/smartsim/mini_app/render_slice.py:190: DeprecationWarning: 'mode' parameter is deprecated and will be removed in Pillow 13 (2026-10-15)
  img = Image.fromarray(canvas, mode="RGB")
[render_slice] rendering 11 frames with 96 threads...
[render_slice] progress: 1/11 (9.1%)
[render_slice] progress: 2/11 (18.2%)
[render_slice] progress: 3/11 (27.3%)
[render_slice] progress: 4/11 (36.4%)
[render_slice] progress: 5/11 (45.5%)
[render_slice] progress: 6/11 (54.5%)
[render_slice] progress: 7/11 (63.6%)
[render_slice] progress: 8/11 (72.7%)
[render_slice] progress: 9/11 (81.8%)
[render_slice] progress: 10/11 (90.9%)
[render_slice] progress: 11/11 (100.0%)
Rendered 11 side-view full-size frames (width=8640, height=540, height_min=40.0, slice_z=2160, threads=96) into /hpcwork/thes2181/mini_app/circle_r500_d100_s10_periodic_8640x4320_c23mm_1n_96t_c-4n___rank0_gather_none_2gpu_perfect_model_revamped_prepare/rendered_slices_reduced_height
Slice (reduced height) rendering time: 0 seconds
Currently loaded GCC module: GCC/11.3.0
Unloading currently loaded GCC module to avoid conflicts with FFmpeg's dependencies...

Inactive Modules:
  1) FFTW.MPI/3.3.10     3) HDF5/1.12.2       5) PnetCDF/1.12.3
  2) FFTW/3.3.10         4) OpenMPI/4.1.4

[INFO] Module zlib/1.2.12 loaded.
[INFO] Module binutils/2.38 loaded.
[INFO] Module ncurses/6.3 loaded.
[INFO] Module GCCcore/14.2.0 loaded.
[INFO] Module libevent/2.1.12 loaded.
[INFO] Module Szip/2.1.1 loaded.

Inactive Modules:
  1) Clang/15.0.5     4) UCC/1.0.0      7) Z3/4.10.2            10) libxml2/2.9.13
  2) GMP/6.2.1        5) UCX/1.12.1     8) hwloc/2.7.1          11) numactl/2.0.14
  3) PMIx/4.1.2       6) XZ/5.2.5       9) libpciaccess/0.16

Due to MODULEPATH changes, the following have been reloaded:
  1) Szip/2.1.1     2) binutils/2.38     3) libevent/2.1.12     4) ncurses/6.3

The following have been reloaded with a version change:
  1) GCCcore/11.3.0 => GCCcore/14.2.0     3) zlib/1.2.12 => zlib/1.3.1
  2) OpenSSL/1.1 => OpenSSL/3

[INFO] Module FFmpeg/7.1.1 loaded.

Activating Modules:
  1) libpciaccess/0.18.1

The following have been reloaded with a version change:
  1) ncurses/6.3 => ncurses/6.5

ffmpeg version 7.1.1 Copyright (c) 2000-2025 the FFmpeg developers
  built with gcc 14.2.0 (GCC)
  configuration: --prefix=/cvmfs/software.hpc.rwth.de/Linux/RH9/x86_64/intel/sapphirerapids/software/FFmpeg/7.1.1-GCCcore-14.2.0 --enable-pic --enable-shared --enable-gpl --enable-version3 --enable-nonfree --cc=gcc --cxx=g++ --enable-libx264 --enable-libx265 --enable-libmp3lame --enable-libfreetype --enable-fontconfig --enable-libfribidi --enable-sdl2 --disable-htmlpages
  libavutil      59. 39.100 / 59. 39.100
  libavcodec     61. 19.101 / 61. 19.101
  libavformat    61.  7.100 / 61.  7.100
  libavdevice    61.  3.100 / 61.  3.100
  libavfilter    10.  4.100 / 10.  4.100
  libswscale      8.  3.100 /  8.  3.100
  libswresample   5.  3.100 /  5.  3.100
  libpostproc    58.  3.100 / 58.  3.100
Input #0, image2, from 'rendered_frames/frame_*.png':
  Duration: 00:00:11.00, start: 0.000000, bitrate: N/A
  Stream #0:0: Video: png, rgb24(pc, gbr/unknown/unknown), 8640x4320, 1 fps, 1 tbr, 1 tbn
File 'top_view.mp4' already exists. Overwrite? [y/N] Not overwriting - exiting
Error opening output file top_view.mp4.
Top view video rendering time: 1 seconds
ffmpeg version 7.1.1 Copyright (c) 2000-2025 the FFmpeg developers
  built with gcc 14.2.0 (GCC)
  configuration: --prefix=/cvmfs/software.hpc.rwth.de/Linux/RH9/x86_64/intel/sapphirerapids/software/FFmpeg/7.1.1-GCCcore-14.2.0 --enable-pic --enable-shared --enable-gpl --enable-version3 --enable-nonfree --cc=gcc --cxx=g++ --enable-libx264 --enable-libx265 --enable-libmp3lame --enable-libfreetype --enable-fontconfig --enable-libfribidi --enable-sdl2 --disable-htmlpages
  libavutil      59. 39.100 / 59. 39.100
  libavcodec     61. 19.101 / 61. 19.101
  libavformat    61.  7.100 / 61.  7.100
  libavdevice    61.  3.100 / 61.  3.100
  libavfilter    10.  4.100 / 10.  4.100
  libswscale      8.  3.100 /  8.  3.100
  libswresample   5.  3.100 /  5.  3.100
  libpostproc    58.  3.100 / 58.  3.100
Input #0, image2, from 'rendered_slices/frame_*.png':
  Duration: 00:00:11.00, start: 0.000000, bitrate: N/A
  Stream #0:0: Video: png, rgb24(pc, gbr/unknown/unknown), 8640x1080, 1 fps, 1 tbr, 1 tbn
File 'slice_full_height.mp4' already exists. Overwrite? [y/N] Not overwriting - exiting
Error opening output file slice_full_height.mp4.
Slice (full height) video rendering time: 0 seconds
Building dual-view video:
  top-pattern:   /hpcwork/thes2181/mini_app/circle_r500_d100_s10_periodic_8640x4320_c23mm_1n_96t_c-4n___rank0_gather_none_2gpu_perfect_model_revamped_prepare/rendered_frames/frame_*.png
  slice-pattern: /hpcwork/thes2181/mini_app/circle_r500_d100_s10_periodic_8640x4320_c23mm_1n_96t_c-4n___rank0_gather_none_2gpu_perfect_model_revamped_prepare/rendered_slices/frame_*.png
  output:        /hpcwork/thes2181/mini_app/circle_r500_d100_s10_periodic_8640x4320_c23mm_1n_96t_c-4n___rank0_gather_none_2gpu_perfect_model_revamped_prepare/dual_1x1.mp4
  fps:           1
  size:          2160x2160 (top=1080, bottom=1080)
  encoded size:  2160x2160 (pix_fmt=yuv420p)
ffmpeg version 7.1.1 Copyright (c) 2000-2025 the FFmpeg developers
  built with gcc 14.2.0 (GCC)
  configuration: --prefix=/cvmfs/software.hpc.rwth.de/Linux/RH9/x86_64/intel/sapphirerapids/software/FFmpeg/7.1.1-GCCcore-14.2.0 --enable-pic --enable-shared --enable-gpl --enable-version3 --enable-nonfree --cc=gcc --cxx=g++ --enable-libx264 --enable-libx265 --enable-libmp3lame --enable-libfreetype --enable-fontconfig --enable-libfribidi --enable-sdl2 --disable-htmlpages
  libavutil      59. 39.100 / 59. 39.100
  libavcodec     61. 19.101 / 61. 19.101
  libavformat    61.  7.100 / 61.  7.100
  libavdevice    61.  3.100 / 61.  3.100
  libavfilter    10.  4.100 / 10.  4.100
  libswscale      8.  3.100 /  8.  3.100
  libswresample   5.  3.100 /  5.  3.100
  libpostproc    58.  3.100 / 58.  3.100
Input #0, image2, from '/hpcwork/thes2181/mini_app/circle_r500_d100_s10_periodic_8640x4320_c23mm_1n_96t_c-4n___rank0_gather_none_2gpu_perfect_model_revamped_prepare/rendered_frames/frame_*.png':
  Duration: 00:00:11.00, start: 0.000000, bitrate: N/A
  Stream #0:0: Video: png, rgb24(pc, gbr/unknown/unknown), 8640x4320, 1 fps, 1 tbr, 1 tbn
Input #1, image2, from '/hpcwork/thes2181/mini_app/circle_r500_d100_s10_periodic_8640x4320_c23mm_1n_96t_c-4n___rank0_gather_none_2gpu_perfect_model_revamped_prepare/rendered_slices/frame_*.png':
  Duration: 00:00:11.00, start: 0.000000, bitrate: N/A
  Stream #1:0: Video: png, rgb24(pc, gbr/unknown/unknown), 8640x1080, 1 fps, 1 tbr, 1 tbn
Stream mapping:
  Stream #0:0 (png) -> scale:default
  Stream #1:0 (png) -> scale:default
  vstack:default -> Stream #0:0 (libx265)
Press [q] to stop, [?] for help
x265 [info]: HEVC encoder version 4.1+1-1d117be
x265 [info]: build info [Linux][GCC 14.2.0][64 bit][noasm] 8bit
x265 [info]: using cpu capabilities: none!
x265 [info]: Main profile, Level-5 (Main tier)
x265 [info]: Thread pool created using 64 threads
x265 [info]: Thread pool created using 32 threads
x265 [info]: Slices                              : 1
x265 [info]: frame threads / pool features       : 16 / wpp(34 rows)
x265 [info]: Coding QT: max CU size, min CU size : 64 / 8
x265 [info]: Residual QT: max TU size, max depth : 32 / 1 inter / 1 intra
x265 [info]: ME / range / subpel / merge         : star / 57 / 3 / 3
x265 [info]: Keyframe min / max / scenecut / bias  : 1 / 250 / 40 / 5.00 
x265 [info]: Lookahead / bframes / badapt        : 25 / 4 / 2
x265 [info]: b-pyramid / weightp / weightb       : 1 / 1 / 0
x265 [info]: References / ref-limit  cu / depth  : 4 / on / on
x265 [info]: AQ: mode / str / qg-size / cu-tree  : 2 / 1.0 / 32 / 1
x265 [info]: Rate Control / qCompress            : CRF-23.0 / 0.60
x265 [info]: tools: rect limit-modes rd=4 psy-rd=2.00 rdoq=2 psy-rdoq=1.00
x265 [info]: tools: rskip mode=1 signhide tmvp strong-intra-smoothing lslices=4
x265 [info]: tools: deblock sao
Output #0, mp4, to '/hpcwork/thes2181/mini_app/circle_r500_d100_s10_periodic_8640x4320_c23mm_1n_96t_c-4n___rank0_gather_none_2gpu_perfect_model_revamped_prepare/dual_1x1.mp4':
  Metadata:
    encoder         : Lavf61.7.100
  Stream #0:0: Video: hevc (hev1 / 0x31766568), yuv420p(tv, progressive), 2160x2160, q=2-31, 1 fps, 16384 tbn
      Metadata:
        encoder         : Lavc61.19.101 libx265
      Side data:
        cpb: bitrate max/min/avg: 0/0/0 buffer size: 0 vbv_delay: N/A
frame=    0 fps=0.0 q=0.0 size=       0KiB time=N/A bitrate=N/A speed=N/A    frame=    0 fps=0.0 q=0.0 size=       0KiB time=N/A bitrate=N/A speed=N/A    [out#0/mp4 @ 0x4795c0] video:924KiB audio:0KiB subtitle:0KiB other streams:0KiB global headers:2KiB muxing overhead: 0.357761%
frame=   11 fps=5.9 q=19.9 Lsize=     928KiB time=00:00:09.00 bitrate= 844.3kbits/s speed=4.81x    
x265 [info]: frame I:      1, Avg QP:12.16  kb/s: 6779.78 
x265 [info]: frame P:      3, Avg QP:16.15  kb/s: 86.10   
x265 [info]: frame B:      7, Avg QP:19.24  kb/s: 76.16   
x265 [info]: Weighted P-Frames: Y:0.0% UV:0.0%

encoded 11 frames in 1.26s (8.73 fps), 688.29 kb/s, Avg QP:17.75
Combined video (1:1) rendering time: 2 seconds
Building dual-view video:
  top-pattern:   /hpcwork/thes2181/mini_app/circle_r500_d100_s10_periodic_8640x4320_c23mm_1n_96t_c-4n___rank0_gather_none_2gpu_perfect_model_revamped_prepare/rendered_frames/frame_*.png
  slice-pattern: /hpcwork/thes2181/mini_app/circle_r500_d100_s10_periodic_8640x4320_c23mm_1n_96t_c-4n___rank0_gather_none_2gpu_perfect_model_revamped_prepare/rendered_slices_reduced_height/frame_*.png
  output:        /hpcwork/thes2181/mini_app/circle_r500_d100_s10_periodic_8640x4320_c23mm_1n_96t_c-4n___rank0_gather_none_2gpu_perfect_model_revamped_prepare/dual_16x9.mp4
  fps:           1
  size:          8640x4860 (top=4320, bottom=540)
  encoded size:  8640x4860 (pix_fmt=yuv420p)
ffmpeg version 7.1.1 Copyright (c) 2000-2025 the FFmpeg developers
  built with gcc 14.2.0 (GCC)
  configuration: --prefix=/cvmfs/software.hpc.rwth.de/Linux/RH9/x86_64/intel/sapphirerapids/software/FFmpeg/7.1.1-GCCcore-14.2.0 --enable-pic --enable-shared --enable-gpl --enable-version3 --enable-nonfree --cc=gcc --cxx=g++ --enable-libx264 --enable-libx265 --enable-libmp3lame --enable-libfreetype --enable-fontconfig --enable-libfribidi --enable-sdl2 --disable-htmlpages
  libavutil      59. 39.100 / 59. 39.100
  libavcodec     61. 19.101 / 61. 19.101
  libavformat    61.  7.100 / 61.  7.100
  libavdevice    61.  3.100 / 61.  3.100
  libavfilter    10.  4.100 / 10.  4.100
  libswscale      8.  3.100 /  8.  3.100
  libswresample   5.  3.100 /  5.  3.100
  libpostproc    58.  3.100 / 58.  3.100
Input #0, image2, from '/hpcwork/thes2181/mini_app/circle_r500_d100_s10_periodic_8640x4320_c23mm_1n_96t_c-4n___rank0_gather_none_2gpu_perfect_model_revamped_prepare/rendered_frames/frame_*.png':
  Duration: 00:00:11.00, start: 0.000000, bitrate: N/A
  Stream #0:0: Video: png, rgb24(pc, gbr/unknown/unknown), 8640x4320, 1 fps, 1 tbr, 1 tbn
Input #1, image2, from '/hpcwork/thes2181/mini_app/circle_r500_d100_s10_periodic_8640x4320_c23mm_1n_96t_c-4n___rank0_gather_none_2gpu_perfect_model_revamped_prepare/rendered_slices_reduced_height/frame_*.png':
  Duration: 00:00:11.00, start: 0.000000, bitrate: N/A
  Stream #1:0: Video: png, rgb24(pc, gbr/unknown/unknown), 8640x540, 1 fps, 1 tbr, 1 tbn
Stream mapping:
  Stream #0:0 (png) -> scale:default
  Stream #1:0 (png) -> scale:default
  vstack:default -> Stream #0:0 (libx265)
Press [q] to stop, [?] for help
x265 [info]: HEVC encoder version 4.1+1-1d117be
x265 [info]: build info [Linux][GCC 14.2.0][64 bit][noasm] 8bit
x265 [info]: using cpu capabilities: none!
x265 [info]: Main profile, Level-8.5 (Main tier)
x265 [info]: Thread pool created using 64 threads
x265 [info]: Thread pool created using 32 threads
x265 [info]: Slices                              : 1
x265 [info]: frame threads / pool features       : 16 / wpp(76 rows)
x265 [info]: Coding QT: max CU size, min CU size : 64 / 8
x265 [info]: Residual QT: max TU size, max depth : 32 / 1 inter / 1 intra
x265 [info]: ME / range / subpel / merge         : star / 57 / 3 / 3
x265 [info]: Keyframe min / max / scenecut / bias  : 1 / 250 / 40 / 5.00 
x265 [info]: Lookahead / bframes / badapt        : 25 / 4 / 2
x265 [info]: b-pyramid / weightp / weightb       : 1 / 1 / 0
x265 [info]: References / ref-limit  cu / depth  : 4 / on / on
x265 [info]: AQ: mode / str / qg-size / cu-tree  : 2 / 1.0 / 32 / 1
x265 [info]: Rate Control / qCompress            : CRF-23.0 / 0.60
x265 [info]: tools: rect limit-modes rd=4 psy-rd=2.00 rdoq=2 psy-rdoq=1.00
x265 [info]: tools: rskip mode=1 signhide tmvp strong-intra-smoothing lslices=4
x265 [info]: tools: deblock sao
Output #0, mp4, to '/hpcwork/thes2181/mini_app/circle_r500_d100_s10_periodic_8640x4320_c23mm_1n_96t_c-4n___rank0_gather_none_2gpu_perfect_model_revamped_prepare/dual_16x9.mp4':
  Metadata:
    encoder         : Lavf61.7.100
  Stream #0:0: Video: hevc (hev1 / 0x31766568), yuv420p(tv, progressive), 8640x4860, q=2-31, 1 fps, 16384 tbn
      Metadata:
        encoder         : Lavc61.19.101 libx265
      Side data:
        cpb: bitrate max/min/avg: 0/0/0 buffer size: 0 vbv_delay: N/A
frame=    0 fps=0.0 q=0.0 size=       0KiB time=N/A bitrate=N/A speed=N/A    frame=    0 fps=0.0 q=0.0 size=       0KiB time=N/A bitrate=N/A speed=N/A    frame=    0 fps=0.0 q=0.0 size=       0KiB time=N/A bitrate=N/A speed=N/A    frame=    0 fps=0.0 q=0.0 size=       0KiB time=N/A bitrate=N/A speed=N/A    frame=    0 fps=0.0 q=0.0 size=       0KiB time=N/A bitrate=N/A speed=N/A    frame=    0 fps=0.0 q=0.0 size=       0KiB time=N/A bitrate=N/A speed=N/A    frame=    0 fps=0.0 q=0.0 size=       0KiB time=N/A bitrate=N/A speed=N/A    frame=    0 fps=0.0 q=0.0 size=       0KiB time=N/A bitrate=N/A speed=N/A    frame=    0 fps=0.0 q=0.0 size=       0KiB time=N/A bitrate=N/A speed=N/A    frame=    5 fps=0.9 q=16.4 size=    7168KiB time=00:00:03.00 bitrate=19573.5kbits/s speed=0.545x    frame=    8 fps=1.3 q=19.7 size=    7424KiB time=00:00:06.00 bitrate=10136.3kbits/s speed=   1x    [out#0/mp4 @ 0x479600] video:7638KiB audio:0KiB subtitle:0KiB other streams:0KiB global headers:2KiB muxing overhead: 0.043511%
frame=   11 fps=1.7 q=19.7 Lsize=    7641KiB time=00:00:09.00 bitrate=6955.1kbits/s speed=1.41x    
x265 [info]: frame I:      1, Avg QP:8.85  kb/s: 58951.41
x265 [info]: frame P:      3, Avg QP:15.79  kb/s: 431.32  
x265 [info]: frame B:      7, Avg QP:19.13  kb/s: 331.83  
x265 [info]: Weighted P-Frames: Y:0.0% UV:0.0%

encoded 11 frames in 5.85s (1.88 fps), 5688.02 kb/s, Avg QP:17.29
Combined video (16:9) rendering time: 7 seconds
[INFO] Module zlib/1.3.1 loaded.
[INFO] Module OpenSSL/3 loaded.

Inactive Modules:
  1) Szip/2.1.1     2) libevent/2.1.12     3) zlib/1.3.1

[INFO] Module GCC/11.3.0 loaded.
[INFO] Module binutils/2.38 loaded.
[INFO] Module libevent/2.1.12 loaded.
[INFO] Module Szip/2.1.1 loaded.
[INFO] Module numactl/2.0.14 loaded.
[INFO] Module XZ/5.2.5 loaded.
[INFO] Module libxml2/2.9.13 loaded.
[INFO] Module hwloc/2.7.1 loaded.
[INFO] Module GMP/6.2.1 loaded.
[INFO] Module Z3/4.10.2 loaded.
[INFO] Module Clang/15.0.5 loaded.
[INFO] Module UCX/1.12.1 loaded.
[INFO] Module PMIx/4.1.2 loaded.
[INFO] Module UCC/1.0.0 loaded.
[INFO] Module OpenMPI/4.1.4 loaded.
[INFO] Module FFTW/3.3.10 loaded.
[INFO] Module FFTW.MPI/3.3.10 loaded.
[INFO] Module HDF5/1.12.2 loaded.
[INFO] Module PnetCDF/1.12.3 loaded.

Activating Modules:
  1) Clang/15.0.5        6) OpenMPI/4.1.4     11) UCX/1.12.1         16) libxml2/2.9.13
  2) FFTW.MPI/3.3.10     7) PMIx/4.1.2        12) XZ/5.2.5           17) numactl/2.0.14
  3) FFTW/3.3.10         8) PnetCDF/1.12.3    13) Z3/4.10.2          18) zlib/1.2.12
  4) GMP/6.2.1           9) Szip/2.1.1        14) hwloc/2.7.1
  5) HDF5/1.12.2        10) UCC/1.0.0         15) libevent/2.1.12

Due to MODULEPATH changes, the following have been reloaded:
  1) binutils/2.38

The following have been reloaded with a version change:
  1) OpenSSL/3 => OpenSSL/1.1

Now using GCC/11.3.0 as the GCC module after loading FFmpeg
Timing and parameters saved to: /hpcwork/thes2181/mini_app/circle_r500_d100_s10_periodic_8640x4320_c23mm_1n_96t_c-4n___rank0_gather_none_2gpu_perfect_model_revamped_prepare/timing_and_parameters.txt

================================
Model staging total time: 1 seconds
Model staging solver-group time: 1 seconds
Model staging db-group time: 0 seconds
Preparation time: 0 seconds
Compilation time: 0 seconds
Solving time: 0 seconds
Top view rendering time: 10 seconds
Slice (full height) rendering time: 0 seconds
Slice (reduced height) rendering time: 0 seconds
Top view video rendering time: 1 seconds
Slice (full height) video rendering time: 0 seconds
Combined video (1:1) rendering time: 2 seconds
Combined video (16:9) rendering time: 7 seconds
================================
Total time: 21 seconds
